<?xml version="1.0" encoding="UTF-8"?>
<svg width="201px" height="231px" viewBox="0 0 201 231" version="1.1" xmlns="http://www.w3.org/2000/svg" xmlns:xlink="http://www.w3.org/1999/xlink">
    <title>Group</title>
    <defs>
        <polygon id="path-1" points="0 200 127 200 127 0 0 0"></polygon>
        <polygon id="path-3" points="0 97 152 97 152 0 0 0"></polygon>
    </defs>
    <g id="Design" stroke="none" stroke-width="1" fill="none" fill-rule="evenodd">
        <g id="App-Splash" transform="translate(-285.000000, -550.000000)">
            <g id="Group" transform="translate(285.000000, 550.000000)">
                <g id="Group-18" transform="translate(74.000000, 0.000000)">
                    <polygon id="Fill-1" fill="#FF5338" points="3.43243243 13.75 0 41.3425926 0 200 127 200 127 186.203704 123.567568 117.222222 127 110.324074 127 41.3425926 123.567568 13.75"></polygon>
                    <g id="Group-17">
                        <path d="M127,109.710345 L127,186.206897 L113.27027,186.206897 L96.1081081,165.517241 L96.1081081,186.206897 L75.3796486,186.206897 L75.3796486,162.068966 L72.4174595,155.97931 C67.0937568,145.031034 64.3306486,133 64.3306486,120.824138 L43.8321622,120.824138 C42.7578108,120.810345 41.7109189,120.568966 40.7464054,120.082759 L31.2797568,115.327586 C28.9354054,114.155172 27.4594595,111.744828 27.4594595,109.12069 L27.4594595,98.6 C27.4594595,94.5034483 30.758027,91.1896552 34.8323243,91.1896552 L43.6159189,91.1896552 C45.0094865,91.1896552 46.2829189,90.3965517 46.9144865,89.1448276 L54.2736216,74.3413793 C55.9246216,71.0517241 59.2643784,68.9655172 62.9370811,68.9655172 L80.1919189,68.9655172 C88.3302162,68.9655172 95.5589189,74.1931034 98.1332432,81.9517241 L104.877973,102.303448 L127,109.710345 Z" id="Fill-2" fill="#EBEBEB"></path>
                        <polygon id="Fill-4" fill="#EA9D2D" points="68.6486486 55.1724138 13.7297297 55.1724138 17.1621622 48.2758621 13.7297297 41.3793103 68.6486486 41.3793103 65.2162162 48.2758621"></polygon>
                        <mask id="mask-2" fill="white">
                            <use xlink:href="#path-1"></use>
                        </mask>
                        <g id="Clip-7"></g>
                        <polygon id="Fill-6" fill="#DC4D41" mask="url(#mask-2)" points="0.45035461 200 127 200 127 187.330317 0.45035461 187.330317"></polygon>
                        <path d="M69.5994324,86.6793103 C69.5994324,89.1689655 67.6017568,91.1896552 65.1235405,91.1896552 C62.6418919,91.1896552 60.6442162,89.1689655 60.6442162,86.6793103 C60.6442162,84.2 62.6418919,82.1793103 65.1235405,82.1793103 C67.6017568,82.1793103 69.5994324,84.2 69.5994324,86.6793103" id="Fill-8" fill="#744630" mask="url(#mask-2)"></path>
                        <path d="M104.448919,99.1931034 L99.3002703,106.437931 C91.2409189,117.77931 78.207973,124.513793 64.3306486,124.513793 L64.3306486,139.331034 C82.9412973,139.331034 100.505054,130.696552 111.928189,115.948276 L118.981838,106.827586 C119.143162,106.627586 119.198081,106.372414 119.143162,106.113793 C119.088243,105.858621 118.916622,105.644828 118.686649,105.534483 L105.533568,98.9241379 C105.159432,98.7344828 104.702919,98.8551724 104.448919,99.1931034" id="Fill-9" fill="#4799CF" mask="url(#mask-2)"></path>
                        <path d="M54.9189189,48.2758621 C54.9189189,55.9 48.7782973,62.0689655 41.1891892,62.0689655 C33.6000811,62.0689655 27.4594595,55.9 27.4594595,48.2758621 C27.4594595,40.6517241 33.6000811,34.4827586 41.1891892,34.4827586 C48.7782973,34.4827586 54.9189189,40.6517241 54.9189189,48.2758621" id="Fill-10" fill="#FBB540" mask="url(#mask-2)"></path>
                        <polygon id="Fill-11" fill="#DC4D41" mask="url(#mask-2)" points="3.43243243 13.7931034 123.567568 13.7931034 123.567568 0 3.43243243 0"></polygon>
                        <path d="M99.5405405,186.206897 L92.6756757,186.206897 L92.6756757,165.517241 C92.6756757,164.831034 92.8781892,164.168966 93.2523243,163.603448 L100.117189,153.258621 L105.828757,157.086207 L99.5405405,166.568966 L99.5405405,186.206897 Z" id="Fill-12" fill="#CDCDCD" mask="url(#mask-2)"></path>
                        <polygon id="Fill-13" fill="#DC4D41" mask="url(#mask-2)" points="127 41.3793103 127 44.8275862 96.1081081 44.8275862 96.1081081 37.9310345 126.570946 37.9310345"></polygon>
                        <polygon id="Fill-14" fill="#DC4D41" mask="url(#mask-2)" points="82.3783784 44.8275862 89.2432432 44.8275862 89.2432432 37.9310345 82.3783784 37.9310345"></polygon>
                        <path d="M79.0798108,68.9655172 L79.0798108,94.8965517 C79.0798108,101.024138 84.0259459,106.006897 90.1288108,106.006897 C96.241973,106.006897 101.188108,101.024138 101.188108,94.8965517 L101.188108,81.1827586 C101.188108,74.4344828 95.7477027,68.9655172 89.0407297,68.9655172 L79.0798108,68.9655172 Z" id="Fill-15" fill="#744630" mask="url(#mask-2)"></path>
                        <path d="M68.0170811,131.924138 C68.0170811,136.017241 64.7082162,139.331034 60.6442162,139.331034 C56.5664865,139.331034 53.2713514,136.017241 53.2713514,131.924138 C53.2713514,127.841379 56.5664865,124.513793 60.6442162,124.513793 C64.7082162,124.513793 68.0170811,127.841379 68.0170811,131.924138" id="Fill-16" fill="#FECE2F" mask="url(#mask-2)"></path>
                    </g>
                </g>
                <g id="Group-23" transform="translate(0.000000, 134.000000)">
                    <path d="M117.727006,17.890821 C116.724884,13.9417462 113.861679,10.7179261 110.063721,9.24226329 C106.248921,7.77079273 101.954113,8.22774513 98.5477413,10.453816 C93.4992368,4.49247372 86.2780647,0.761394538 78.4842516,0.103215402 C70.6862279,-0.550771511 62.9387314,1.92264053 56.9681063,6.96588576 C54.1427964,3.8552557 49.4521925,3.29768994 45.9826615,5.65791194 C42.496288,8.03071061 41.3299529,12.5834657 43.2205105,16.335506 C43.153141,16.4822338 43.0899821,16.6457305 43.0226125,16.7924584 C42.7910297,16.7924584 42.5636576,16.7756895 42.3152324,16.7756895 C27.6623585,16.7756895 15.2411004,27.4868213 13.1358025,41.9290323 L138.864198,41.9290323 C137.18417,30.4674924 128.910349,21.0517577 117.727006,17.890821" id="Fill-1" fill="#FBB540"></path>
                    <polygon id="Fill-3" fill="#6CBAE5" points="152 97 0 97 5.19333333 63.1101737 6.498 54.6377171 8.44444444 41.9290323 143.555556 41.9290323"></polygon>
                    <path d="M59.4238683,12.8290323 C59.4238683,17.4967661 55.6449794,21.2774194 50.9794239,21.2774194 C46.3138683,21.2774194 42.5349794,17.4967661 42.5349794,12.8290323 C42.5349794,8.16129839 46.3138683,4.38064516 50.9794239,4.38064516 C55.6449794,4.38064516 59.4238683,8.16129839 59.4238683,12.8290323" id="Fill-5" fill="#DA922A"></path>
                    <path d="M84.4444444,33.4806452 C84.4444444,38.148379 80.6655556,41.9290323 76,41.9290323 C71.3344444,41.9290323 67.5555556,38.148379 67.5555556,33.4806452 C67.5555556,28.8129113 71.3344444,25.0322581 76,25.0322581 C80.6655556,25.0322581 84.4444444,28.8129113 84.4444444,33.4806452" id="Fill-7" fill="#DA922A"></path>
                    <path d="M113.843621,16.583871 C113.843621,21.2516048 110.064733,25.0322581 105.399177,25.0322581 C100.733621,25.0322581 96.9547325,21.2516048 96.9547325,16.583871 C96.9547325,11.9161371 100.733621,8.13548387 105.399177,8.13548387 C110.064733,8.13548387 113.843621,11.9161371 113.843621,16.583871" id="Fill-9" fill="#DA922A"></path>
                    <path d="M67.5555556,67.2741935 C67.5555556,69.5155194 65.7299918,71.3419355 63.4897119,71.3419355 C61.2494321,71.3419355 59.4238683,69.5155194 59.4238683,67.2741935 C59.4238683,65.0328677 61.2494321,63.2064516 63.4897119,63.2064516 C65.7299918,63.2064516 67.5555556,65.0328677 67.5555556,67.2741935" id="Fill-11" fill="#4799CF"></path>
                    <path d="M80.0658436,59.1387097 C80.0658436,61.3800355 78.2402798,63.2064516 76,63.2064516 C73.7597202,63.2064516 71.9341564,61.3800355 71.9341564,59.1387097 C71.9341564,56.8973839 73.7597202,55.0709677 76,55.0709677 C78.2402798,55.0709677 80.0658436,56.8973839 80.0658436,59.1387097" id="Fill-13" fill="#4799CF"></path>
                    <path d="M92.5761317,67.2741935 C92.5761317,69.5155194 90.7505679,71.3419355 88.5102881,71.3419355 C86.2700082,71.3419355 84.4444444,69.5155194 84.4444444,67.2741935 C84.4444444,65.0328677 86.2700082,63.2064516 88.5102881,63.2064516 C90.7505679,63.2064516 92.5761317,65.0328677 92.5761317,67.2741935" id="Fill-15" fill="#4799CF"></path>
                    <path d="M84.6529492,76.0354839 C84.6529492,71.36775 80.9207133,67.5870968 76.3127572,67.5870968 C71.7048011,67.5870968 67.9725652,71.36775 67.9725652,76.0354839 C65.6748422,76.0354839 63.8024691,77.9321468 63.8024691,80.2596774 C63.8024691,82.5872081 65.6748422,84.483871 67.9725652,84.483871 L84.6529492,84.483871 C86.9506722,84.483871 88.8230453,82.5872081 88.8230453,80.2596774 C88.8230453,77.9321468 86.9506722,76.0354839 84.6529492,76.0354839" id="Fill-17" fill="#4799CF"></path>
                    <polygon id="Fill-19" fill="#4799CF" points="34.4032922 55.0709677 34.4032922 63.2064516 5.62962963 63.2064516 6.94293269 55.0709677"></polygon>
                    <mask id="mask-4" fill="white">
                        <use xlink:href="#path-3"></use>
                    </mask>
                    <g id="Clip-22"></g>
                    <polygon id="Fill-21" fill="#4799CF" mask="url(#mask-4)" points="42.5349794 63.2064516 50.6666667 63.2064516 50.6666667 55.0709677 42.5349794 55.0709677"></polygon>
                </g>
            </g>
        </g>
    </g>
</svg>