<?xml version="1.0" encoding="UTF-8"?>
<svg width="56px" height="56px" viewBox="0 0 56 56" version="1.1" xmlns="http://www.w3.org/2000/svg" xmlns:xlink="http://www.w3.org/1999/xlink">
    <title>Icons / Tabbar / trainings</title>
    <g id="Symbols" stroke="none" stroke-width="1" fill="none" fill-rule="evenodd">
        <g id="Icons-/-Tabbar-/-trainings" fill="#FF5338" fill-rule="nonzero" stroke="#FF5338" stroke-width="2">
            <g id="ball" transform="translate(17.000000, 28.000000)">
                <path d="M11,0 C4.92720035,0 0,4.92720035 0,11 C0,17.0727997 4.92720035,22 11,22 C17.0727997,22 22,17.0727997 22,11 C22,4.92720035 17.0727997,0 11,0 Z M11,0.956521739 C11.0407445,0.956521739 11.0808055,0.958842883 11.1214333,0.959324061 C11.0435246,1.42543299 11,1.90352872 11,2.39130435 C11,7.14265822 14.8573418,11 19.6086957,11 C20.096471,11 20.5745669,10.9564754 21.0406761,10.8785667 C21.0411573,10.9191945 21.0434783,10.9592555 21.0434783,11 C21.0434783,16.5565917 16.5565917,21.0434783 11,21.0434783 C10.9592555,21.0434783 10.9191945,21.0411573 10.8785667,21.0406761 C10.9564754,20.5745669 11,20.096471 11,19.6086957 C11,14.8573418 7.14265822,11 2.39130435,11 C1.90352872,11 1.42543299,11.0435246 0.959324061,11.1214333 C0.958842883,11.0808055 0.956521739,11.0407445 0.956521739,11 C0.956521739,5.44340835 5.44340835,0.956521739 11,0.956521739 Z M12.0807577,1.01443617 C16.7717172,1.51401527 20.4859849,5.22828278 20.9855637,9.91924235 C20.5389609,10.0002956 20.079476,10.0434783 19.6086957,10.0434783 C15.3735278,10.0434783 11.9565217,6.62647222 11.9565217,2.39130435 C11.9565217,1.92052415 11.9997044,1.46103918 12.0807577,1.01443617 Z M2.39130435,11.9565217 C6.62647222,11.9565217 10.0434783,15.3735278 10.0434783,19.6086957 C10.0434783,20.079476 10.0002956,20.5389609 9.91924235,20.9855637 C5.22828278,20.4859849 1.51401527,16.7717172 1.01443617,12.0807577 C1.46103918,11.9997044 1.92052415,11.9565217 2.39130435,11.9565217 Z" id="Shape"></path>
            </g>
        </g>
    </g>
</svg>