<?xml version="1.0" encoding="UTF-8"?>
<svg width="56px" height="56px" viewBox="0 0 56 56" version="1.1" xmlns="http://www.w3.org/2000/svg" xmlns:xlink="http://www.w3.org/1999/xlink">
    <title>Icons / homedog</title>
    <defs>
        <polygon id="path-1" points="0 35 54.7272727 35 54.7272727 0 0 0"></polygon>
    </defs>
    <g id="Symbols" stroke="none" stroke-width="1" fill="none" fill-rule="evenodd">
        <g id="Group-23" transform="translate(1.000000, 21.000000)">
            <path d="M42.6768556,6.51676452 C42.3167326,5.07830674 41.2878098,3.90402432 39.9229739,3.36651144 C38.5520855,2.83052557 37.0087012,2.99697133 35.7845856,3.80782173 C33.9703526,1.63639183 31.3753486,0.277339364 28.5745601,0.0375964003 C25.7722584,-0.200619538 22.9881142,0.700325357 20.8425075,2.53733673 C19.8272027,1.40428399 18.141585,1.20118964 16.8947726,2.06090485 C15.6419077,2.92520114 15.2227729,4.58355056 15.9021646,5.95023815 C15.8779547,6.00368403 15.8552579,6.06323802 15.8310479,6.1166839 C15.7478262,6.1166839 15.6661176,6.1105758 15.5768435,6.1105758 C10.3111794,6.1105758 5.84747001,10.0121253 5.09090909,15.2727273 L50.2727273,15.2727273 C49.6689917,11.0978403 46.6957072,7.66814155 42.6768556,6.51676452" id="Fill-1" fill="#B4B4B4"></path>
            <polygon id="Fill-3" fill="#E8E8EA" points="54.7272727 35 0 35 1.86984848 22.8601399 2.33959091 19.8251748 3.04040404 15.2727273 51.6868687 15.2727273"></polygon>
            <path d="M21.6363636,4.45454545 C21.6363636,6.2125 20.2125,7.63636364 18.4545455,7.63636364 C16.6965909,7.63636364 15.2727273,6.2125 15.2727273,4.45454545 C15.2727273,2.69659091 16.6965909,1.27272727 18.4545455,1.27272727 C20.2125,1.27272727 21.6363636,2.69659091 21.6363636,4.45454545" id="Fill-5" fill="#808080"></path>
            <path d="M30.5454545,12.0909091 C30.5454545,13.8488636 29.1215909,15.2727273 27.3636364,15.2727273 C25.6056818,15.2727273 24.1818182,13.8488636 24.1818182,12.0909091 C24.1818182,10.3329545 25.6056818,8.90909091 27.3636364,8.90909091 C29.1215909,8.90909091 30.5454545,10.3329545 30.5454545,12.0909091" id="Fill-7" fill="#808080"></path>
            <path d="M41.3636364,5.72727273 C41.3636364,7.48522727 39.9397727,8.90909091 38.1818182,8.90909091 C36.4238636,8.90909091 35,7.48522727 35,5.72727273 C35,3.96931818 36.4238636,2.54545455 38.1818182,2.54545455 C39.9397727,2.54545455 41.3636364,3.96931818 41.3636364,5.72727273" id="Fill-9" fill="#808080"></path>
            <path d="M24.1818182,24.5 C24.1818182,25.3765909 23.4675,26.0909091 22.5909091,26.0909091 C21.7143182,26.0909091 21,25.3765909 21,24.5 C21,23.6234091 21.7143182,22.9090909 22.5909091,22.9090909 C23.4675,22.9090909 24.1818182,23.6234091 24.1818182,24.5" id="Fill-11" fill="#808080"></path>
            <path d="M29.2727273,21.3181818 C29.2727273,22.1947727 28.5584091,22.9090909 27.6818182,22.9090909 C26.8052273,22.9090909 26.0909091,22.1947727 26.0909091,21.3181818 C26.0909091,20.4415909 26.8052273,19.7272727 27.6818182,19.7272727 C28.5584091,19.7272727 29.2727273,20.4415909 29.2727273,21.3181818" id="Fill-13" fill="#808080"></path>
            <path d="M33.7272727,24.5 C33.7272727,25.3765909 33.0129545,26.0909091 32.1363636,26.0909091 C31.2597727,26.0909091 30.5454545,25.3765909 30.5454545,24.5 C30.5454545,23.6234091 31.2597727,22.9090909 32.1363636,22.9090909 C33.0129545,22.9090909 33.7272727,23.6234091 33.7272727,24.5" id="Fill-15" fill="#808080"></path>
            <path d="M30.3333333,27.3636364 C30.3333333,25.6056818 29.0043939,24.1818182 27.3636364,24.1818182 C25.7228788,24.1818182 24.3939394,25.6056818 24.3939394,27.3636364 C23.5757879,27.3636364 22.9090909,28.0779545 22.9090909,28.9545455 C22.9090909,29.8311364 23.5757879,30.5454545 24.3939394,30.5454545 L30.3333333,30.5454545 C31.1514848,30.5454545 31.8181818,29.8311364 31.8181818,28.9545455 C31.8181818,28.0779545 31.1514848,27.3636364 30.3333333,27.3636364" id="Fill-17" fill-opacity="0.804602582" fill="#808080"></path>
            <polygon id="Fill-19" fill-opacity="0.804602582" fill="#808080" points="12.0909091 19.7272727 12.0909091 22.9090909 1.90909091 22.9090909 2.37381496 19.7272727"></polygon>
            <mask id="mask-2" fill="white">
                <use xlink:href="#path-1"></use>
            </mask>
            <g id="Clip-22"></g>
            <polygon id="Fill-21" fill="#808080" mask="url(#mask-2)" points="15.2727273 22.9090909 18.4545455 22.9090909 18.4545455 19.7272727 15.2727273 19.7272727"></polygon>
        </g>
    </g>
</svg>