<?xml version="1.0" encoding="UTF-8"?>
<svg width="215px" height="132px" viewBox="0 0 215 132" version="1.1" xmlns="http://www.w3.org/2000/svg" xmlns:xlink="http://www.w3.org/1999/xlink">
    <title>Group 4</title>
    <defs>
        <polygon id="path-1" points="0 0 207 0 207 75 0 75"></polygon>
        <polygon id="path-3" points="0 0 64.6568 0 64.6568 64.657 0 64.657"></polygon>
    </defs>
    <g id="Design" stroke="none" stroke-width="1" fill="none" fill-rule="evenodd">
        <g id="Group-4">
            <g id="Group-12">
                <path d="M160.251594,24.3216613 C158.888393,18.9523987 154.99418,14.5704655 149.829161,12.564152 C144.639908,10.5638681 138.799346,11.1849058 134.165976,14.2117107 C127.299984,6.10656622 117.478874,1.03425616 106.879225,0.140383983 C96.2720026,-0.748966073 85.7359694,2.61398304 77.6143176,9.46951533 C73.771604,5.24133413 67.3933355,4.48312553 62.6736288,7.69081522 C57.9327168,10.9165934 56.3453444,17.1058668 58.9172513,22.206817 C58.8248565,22.4072976 58.7400351,22.6288814 58.6476403,22.8278546 C58.3325893,22.8278546 58.0235969,22.805244 57.6858259,22.805244 C37.7573342,22.805244 20.8627232,37.366467 18,57 L189,57 C186.714365,41.4197929 175.461894,28.6191816 160.251594,24.3216613" id="Fill-1" fill="#FBB540"></path>
                <g id="Group-5" transform="translate(0.000000, 57.000000)">
                    <mask id="mask-2" fill="white">
                        <use xlink:href="#path-1"></use>
                    </mask>
                    <g id="Clip-4"></g>
                    <polygon id="Fill-3" fill="#22891D" mask="url(#mask-2)" points="207.000608 75 0 75 7.07187443 28.8458017 8.84820762 17.3083966 11.4990199 0 195.500068 0"></polygon>
                </g>
                <path d="M81,17.5 C81,23.8537424 75.8534021,29 69.4992396,29 C63.145077,29 58,23.8537424 58,17.5 C58,11.1462576 63.145077,6 69.4992396,6 C75.8534021,6 81,11.1462576 81,17.5" id="Fill-6" fill="#DA922A"></path>
                <path d="M115,45.5 C115,51.8537424 109.853402,57 103.49924,57 C97.145077,57 92,51.8537424 92,45.5 C92,39.1462576 97.145077,34 103.49924,34 C109.853402,34 115,39.1462576 115,45.5" id="Fill-8" fill="#DA922A"></path>
                <path d="M155,22.5 C155,28.8537424 149.853402,34 143.49924,34 C137.145077,34 132,28.8537424 132,22.5 C132,16.1462576 137.145077,11 143.49924,11 C149.853402,11 155,16.1462576 155,22.5" id="Fill-10" fill="#DA922A"></path>
            </g>
            <g id="Group-8" transform="translate(150.000000, 17.000000)">
                <g id="Group-3">
                    <mask id="mask-4" fill="white">
                        <use xlink:href="#path-3"></use>
                    </mask>
                    <g id="Clip-2"></g>
                    <path d="M64.657,32.3284 C64.657,50.1834 50.182,64.6574 32.328,64.6574 C14.474,64.6574 0,50.1834 0,32.3284 C0,14.4744 14.474,-0.0006 32.328,-0.0006 C50.182,-0.0006 64.657,14.4744 64.657,32.3284" id="Fill-1" fill="#1FDD75" mask="url(#mask-4)"></path>
                </g>
                <path d="M29.5461,48.5404 C27.9631,48.5404 26.4421,47.9134 25.3241,46.7914 L13.6501,35.1224 C11.3191,32.7934 11.3191,29.0104 13.6501,26.6784 C15.9831,24.3464 19.7621,24.3464 22.0951,26.6784 L29.5461,34.1254 L44.6431,19.0284 C46.9761,16.6954 50.7511,16.6954 53.0841,19.0284 C55.4161,21.3604 55.4161,25.1394 53.0841,27.4714 L33.7671,46.7914 C32.6461,47.9134 31.1321,48.5404 29.5461,48.5404" id="Fill-4" fill="#FFFFFF"></path>
                <path d="M53.0837,19.0282 C52.5847,18.5302 52.0247,18.1422 51.4227,17.8552 C52.4747,20.0722 52.0837,22.7992 50.2497,24.6372 L30.9327,43.9572 C29.8117,45.0792 28.2977,45.7062 26.7117,45.7062 C25.1287,45.7062 23.6087,45.0792 22.4897,43.9572 L13.6327,35.1042 C13.6397,35.1112 13.6437,35.1142 13.6507,35.1222 L25.3237,46.7922 C26.4427,47.9132 27.9627,48.5402 29.5427,48.5402 C31.1287,48.5402 32.6457,47.9132 33.7647,46.7922 L53.0837,27.4712 C55.4167,25.1402 55.4167,21.3612 53.0837,19.0282" id="Fill-6" fill="#D8D7D6"></path>
            </g>
        </g>
    </g>
</svg>