<?xml version="1.0" encoding="UTF-8"?>
<svg width="589px" height="142px" viewBox="0 0 589 142" version="1.1" xmlns="http://www.w3.org/2000/svg" xmlns:xlink="http://www.w3.org/1999/xlink">
    <title>chewhuahua paw-licki</title>
    <g id="Design" stroke="none" stroke-width="1" fill="none" fill-rule="evenodd">
        <g id="chewhuahua-paw-licki" transform="translate(0.677734, 0.023438)" fill-rule="nonzero">
            <path d="M26.9042969,77.3925781 C30.094401,77.3925781 33.0729167,77.0426432 35.8398438,76.3427734 C38.6067708,75.6429036 41.1946615,74.593099 43.6035156,73.1933594 L43.6035156,73.1933594 L43.6035156,60.0585938 C41.4550781,61.9466146 39.1764323,63.3544922 36.7675781,64.2822266 C34.358724,65.2099609 31.7708333,65.6738281 29.0039062,65.6738281 C24.3489583,65.6738281 20.7682292,64.2089844 18.2617188,61.2792969 C15.7552083,58.3496094 14.5019531,54.1503906 14.5019531,48.6816406 C14.5019531,43.2128906 15.7552083,38.9973958 18.2617188,36.0351562 C20.7682292,33.0729167 24.3489583,31.5917969 29.0039062,31.5917969 C31.6731771,31.5917969 34.2529297,32.0719401 36.7431641,33.0322266 C39.2333984,33.992513 41.5201823,35.3678385 43.6035156,37.1582031 L43.6035156,37.1582031 L43.6035156,24.0722656 C40.9016927,22.639974 38.1917318,21.5820312 35.4736328,20.8984375 C32.7555339,20.2148438 29.9316406,19.8730469 27.0019531,19.8730469 C18.5709635,19.8730469 11.9628906,22.4202474 7.17773438,27.5146484 C2.39257812,32.6090495 0,39.6647135 0,48.6816406 C0,57.6660156 2.37630208,64.6972656 7.12890625,69.7753906 C11.8815104,74.8535156 18.4733073,77.3925781 26.9042969,77.3925781 Z M74.609375,75.9765625 L74.609375,44.6777344 C74.609375,40.608724 75.3417969,37.4267578 76.8066406,35.1318359 C78.2714844,32.8369141 80.3059896,31.6894531 82.9101562,31.6894531 C85.4492188,31.6894531 87.2802734,32.5358073 88.4033203,34.2285156 C89.5263672,35.921224 90.0878906,38.7369792 90.0878906,42.6757813 L90.0878906,42.6757813 L90.0878906,75.9765625 L104.296875,75.9765625 L104.296875,40.4785156 C104.296875,33.6751302 102.978516,28.5563151 100.341797,25.1220703 C97.7050781,21.6878255 93.7988281,19.9707031 88.6230469,19.9707031 C85.172526,19.9707031 82.2265625,20.8007812 79.7851562,22.4609375 C77.34375,24.1210937 75.6184896,26.4648438 74.609375,29.4921875 L74.609375,29.4921875 L74.609375,0 L60.4003906,0 L60.4003906,75.9765625 L74.609375,75.9765625 Z M144.921875,77.3925781 C148.763021,77.3925781 152.408854,77.0507812 155.859375,76.3671875 C159.309896,75.6835938 162.695312,74.6582031 166.015625,73.2910156 L166.015625,73.2910156 L166.015625,60.15625 C162.532552,62.2070312 159.195964,63.7044271 156.005859,64.6484375 C152.815755,65.5924479 149.576823,66.0644531 146.289062,66.0644531 C141.308594,66.0644531 137.565104,65.0065104 135.058594,62.890625 C132.552083,60.7747396 131.282552,57.5683594 131.25,53.2714844 L131.25,53.2714844 L168.310547,53.2714844 L168.310547,47.4609375 C168.310547,38.7369792 166.072591,31.9742839 161.59668,27.1728516 C157.120768,22.3714193 150.830078,19.9707031 142.724609,19.9707031 C134.684245,19.9707031 128.336589,22.5585938 123.681641,27.734375 C119.026693,32.9101562 116.699219,39.9576823 116.699219,48.8769531 C116.699219,58.0891927 119.116211,65.1448568 123.950195,70.0439453 C128.78418,74.9430339 135.77474,77.3925781 144.921875,77.3925781 Z M131.396484,42.578125 C131.754557,38.8997396 132.910156,36.0595703 134.863281,34.0576172 C136.816406,32.0556641 139.436849,31.0546875 142.724609,31.0546875 C146.370443,31.0546875 149.129232,32.023112 151.000977,33.9599609 C152.872721,35.8968099 153.841146,38.7532552 153.90625,42.5292969 L153.90625,42.5292969 L131.396484,42.578125 Z M195.898438,75.9765625 L202.490234,47.5585938 L209.130859,75.9765625 L222.705078,75.9765625 L232.617188,21.2890625 L220.703125,21.2890625 L214.111328,63.1835938 L208.300781,35.5957031 L196.728516,35.5957031 L190.820312,63.1835938 L184.326172,21.2890625 L172.412109,21.2890625 L182.324219,75.9765625 L195.898438,75.9765625 Z M255.224609,75.9765625 L255.224609,44.6777344 C255.224609,40.608724 255.957031,37.4267578 257.421875,35.1318359 C258.886719,32.8369141 260.921224,31.6894531 263.525391,31.6894531 C266.064453,31.6894531 267.895508,32.5358073 269.018555,34.2285156 C270.141602,35.921224 270.703125,38.7369792 270.703125,42.6757813 L270.703125,42.6757813 L270.703125,75.9765625 L284.912109,75.9765625 L284.912109,40.4785156 C284.912109,33.6751302 283.59375,28.5563151 280.957031,25.1220703 C278.320312,21.6878255 274.414062,19.9707031 269.238281,19.9707031 C265.78776,19.9707031 262.841797,20.8007812 260.400391,22.4609375 C257.958984,24.1210937 256.233724,26.4648438 255.224609,29.4921875 L255.224609,29.4921875 L255.224609,0 L241.015625,0 L241.015625,75.9765625 L255.224609,75.9765625 Z M316.40625,77.3925781 C319.824219,77.3925781 322.745768,76.5625 325.170898,74.9023438 C327.596029,73.2421875 329.313151,70.8984375 330.322266,67.8710938 L330.322266,67.8710938 L330.322266,75.9765625 L344.628906,75.9765625 L344.628906,21.2890625 L330.322266,21.2890625 L330.322266,52.6855469 C330.322266,56.7871094 329.597982,59.9772135 328.149414,62.2558594 C326.700846,64.5345052 324.690755,65.6738281 322.119141,65.6738281 C319.547526,65.6738281 317.708333,64.827474 316.601562,63.1347656 C315.494792,61.4420573 314.941406,58.6263021 314.941406,54.6875 L314.941406,54.6875 L314.941406,21.2890625 L300.634766,21.2890625 L300.634766,56.8847656 C300.634766,63.655599 301.961263,68.766276 304.614258,72.2167969 C307.267253,75.6673177 311.197917,77.3925781 316.40625,77.3925781 Z M377.34375,77.3925781 C380.598958,77.3925781 383.577474,76.7415365 386.279297,75.4394531 C388.98112,74.1373698 391.194661,72.281901 392.919922,69.8730469 L392.919922,69.8730469 L392.919922,75.9765625 L407.128906,75.9765625 L407.128906,44.7753906 C407.128906,35.4654948 405.330404,29.0039062 401.733398,25.390625 C398.136393,21.7773438 391.894531,19.9707031 383.007812,19.9707031 C379.361979,19.9707031 375.911458,20.2799479 372.65625,20.8984375 C369.401042,21.5169271 366.194661,22.4772135 363.037109,23.7792969 L363.037109,23.7792969 L363.037109,35.9863281 C366.520182,34.0983073 369.864909,32.7229818 373.071289,31.8603516 C376.277669,30.9977214 379.589844,30.5664062 383.007812,30.5664062 C386.263021,30.5664062 388.728841,31.1604818 390.405273,32.3486328 C392.081706,33.5367839 392.919922,35.2864583 392.919922,37.5976562 L392.919922,37.5976562 L392.919922,39.9902344 L383.007812,39.9902344 C374.348958,39.9902344 367.952474,41.5120443 363.818359,44.5556641 C359.684245,47.5992839 357.617188,52.3111979 357.617188,58.6914062 C357.617188,64.5833333 359.350586,69.1731771 362.817383,72.4609375 C366.28418,75.7486979 371.126302,77.3925781 377.34375,77.3925781 Z M381.005859,67.4804688 C378.499349,67.4804688 376.513672,66.7480469 375.048828,65.2832031 C373.583984,63.8183594 372.851562,61.8489583 372.851562,59.375 C372.851562,56.0546875 373.909505,53.7109375 376.025391,52.34375 C378.141276,50.9765625 381.86849,50.2929688 387.207031,50.2929688 L387.207031,50.2929688 L392.919922,50.2929688 L392.919922,51.2695312 C392.919922,56.3802083 391.878255,60.3597005 389.794922,63.2080078 C387.711589,66.0563151 384.781901,67.4804688 381.005859,67.4804688 Z M435.839844,75.9765625 L435.839844,44.6777344 C435.839844,40.608724 436.572266,37.4267578 438.037109,35.1318359 C439.501953,32.8369141 441.536458,31.6894531 444.140625,31.6894531 C446.679688,31.6894531 448.510742,32.5358073 449.633789,34.2285156 C450.756836,35.921224 451.318359,38.7369792 451.318359,42.6757813 L451.318359,42.6757813 L451.318359,75.9765625 L465.527344,75.9765625 L465.527344,40.4785156 C465.527344,33.6751302 464.208984,28.5563151 461.572266,25.1220703 C458.935547,21.6878255 455.029297,19.9707031 449.853516,19.9707031 C446.402995,19.9707031 443.457031,20.8007812 441.015625,22.4609375 C438.574219,24.1210937 436.848958,26.4648438 435.839844,29.4921875 L435.839844,29.4921875 L435.839844,0 L421.630859,0 L421.630859,75.9765625 L435.839844,75.9765625 Z M497.021484,77.3925781 C500.439453,77.3925781 503.361003,76.5625 505.786133,74.9023438 C508.211263,73.2421875 509.928385,70.8984375 510.9375,67.8710938 L510.9375,67.8710938 L510.9375,75.9765625 L525.244141,75.9765625 L525.244141,21.2890625 L510.9375,21.2890625 L510.9375,52.6855469 C510.9375,56.7871094 510.213216,59.9772135 508.764648,62.2558594 C507.316081,64.5345052 505.30599,65.6738281 502.734375,65.6738281 C500.16276,65.6738281 498.323568,64.827474 497.216797,63.1347656 C496.110026,61.4420573 495.556641,58.6263021 495.556641,54.6875 L495.556641,54.6875 L495.556641,21.2890625 L481.25,21.2890625 L481.25,56.8847656 C481.25,63.655599 482.576497,68.766276 485.229492,72.2167969 C487.882487,75.6673177 491.813151,77.3925781 497.021484,77.3925781 Z M557.958984,77.3925781 C561.214193,77.3925781 564.192708,76.7415365 566.894531,75.4394531 C569.596354,74.1373698 571.809896,72.281901 573.535156,69.8730469 L573.535156,69.8730469 L573.535156,75.9765625 L587.744141,75.9765625 L587.744141,44.7753906 C587.744141,35.4654948 585.945638,29.0039062 582.348633,25.390625 C578.751628,21.7773438 572.509766,19.9707031 563.623047,19.9707031 C559.977214,19.9707031 556.526693,20.2799479 553.271484,20.8984375 C550.016276,21.5169271 546.809896,22.4772135 543.652344,23.7792969 L543.652344,23.7792969 L543.652344,35.9863281 C547.135417,34.0983073 550.480143,32.7229818 553.686523,31.8603516 C556.892904,30.9977214 560.205078,30.5664062 563.623047,30.5664062 C566.878255,30.5664062 569.344076,31.1604818 571.020508,32.3486328 C572.69694,33.5367839 573.535156,35.2864583 573.535156,37.5976562 L573.535156,37.5976562 L573.535156,39.9902344 L563.623047,39.9902344 C554.964193,39.9902344 548.567708,41.5120443 544.433594,44.5556641 C540.299479,47.5992839 538.232422,52.3111979 538.232422,58.6914062 C538.232422,64.5833333 539.96582,69.1731771 543.432617,72.4609375 C546.899414,75.7486979 551.741536,77.3925781 557.958984,77.3925781 Z M561.621094,67.4804688 C559.114583,67.4804688 557.128906,66.7480469 555.664062,65.2832031 C554.199219,63.8183594 553.466797,61.8489583 553.466797,59.375 C553.466797,56.0546875 554.52474,53.7109375 556.640625,52.34375 C558.75651,50.9765625 562.483724,50.2929688 567.822266,50.2929688 L567.822266,50.2929688 L573.535156,50.2929688 L573.535156,51.2695312 C573.535156,56.3802083 572.49349,60.3597005 570.410156,63.2080078 C568.326823,66.0563151 565.397135,67.4804688 561.621094,67.4804688 Z" id="chewhuahua" fill="#FF5338"></path>
            <path d="M167.827266,140.976562 C168.367266,140.976562 168.547266,140.766562 168.547266,140.406563 L168.547266,131.616563 C168.967266,131.856563 170.047266,132.276563 171.217266,132.276563 C174.457266,132.276563 177.157266,129.516562 177.157266,125.976562 C177.157266,122.526563 174.667266,119.676562 171.367266,119.676562 C169.417266,119.676562 167.947266,120.726562 167.497266,121.326563 L167.107266,120.336562 C167.017266,120.096562 166.807266,119.976562 166.597266,119.976562 L165.427266,119.976562 C165.127266,119.976562 164.857266,120.216562 164.857266,120.546562 L164.857266,140.406563 C164.857266,140.706562 165.127266,140.976562 165.427266,140.976562 L167.827266,140.976562 Z M170.737266,129.036563 C169.237266,129.036563 168.397266,128.346562 168.397266,128.346562 L168.397266,124.746563 C168.577266,124.116563 169.327266,122.916562 170.857266,122.916562 C172.507266,122.916562 173.647266,124.296562 173.647266,125.976562 C173.647266,127.656563 172.417266,129.036563 170.737266,129.036563 Z M186.037266,132.276563 C187.897266,132.276563 189.007266,131.376562 189.697266,130.746563 L190.057266,131.556562 C190.207266,131.886562 190.357266,131.976562 190.567266,131.976562 L191.647266,131.976562 C191.947266,131.976562 192.217266,131.706562 192.217266,131.406563 L192.217266,124.896563 C192.217266,121.626562 191.347266,119.676562 187.597266,119.676562 C185.677266,119.676562 183.757266,120.156563 183.517266,120.246563 C183.247266,120.336562 183.007266,120.546562 183.097266,120.996563 L183.367266,122.556562 C183.427266,122.946563 183.637266,123.216562 184.057266,123.096562 C184.747266,122.886562 186.307266,122.646563 187.417266,122.646563 C188.527266,122.646563 189.007266,123.186563 188.977266,124.716562 C188.977266,124.716562 187.987266,124.386562 186.787266,124.386562 C183.727266,124.386562 181.987266,126.036563 181.987266,128.166562 C181.987266,130.716562 183.637266,132.276563 186.037266,132.276563 Z M186.847266,129.726562 C185.917266,129.726562 185.287266,129.066563 185.287266,128.166562 C185.287266,127.206562 186.067266,126.546562 187.237266,126.546562 C188.107266,126.546562 188.917266,126.906563 188.917266,126.906563 L188.917266,128.556562 C188.737266,128.916562 187.807266,129.726562 186.847266,129.726562 Z M201.727266,132.276563 C201.967266,132.276563 202.117266,132.156563 202.207266,132.006562 L205.957266,125.016562 L205.987266,125.016562 L205.987266,125.016562 L209.767266,132.006562 C209.857266,132.156563 210.007266,132.276563 210.247266,132.276563 L210.367266,132.276563 C210.667266,132.276563 210.847266,132.126562 210.907266,131.946563 L214.657266,120.666562 C214.807266,120.276563 214.537266,119.976562 214.117266,119.976562 L212.167266,119.976562 C211.837266,119.976562 211.597266,120.006562 211.477266,120.336562 L209.677266,125.706562 L209.647266,125.706562 L209.647266,125.706562 L206.617266,119.946563 C206.527266,119.796562 206.407266,119.676562 206.137266,119.676562 L205.897266,119.676562 C205.627266,119.676562 205.477266,119.826563 205.417266,119.946563 L202.357266,125.706562 L202.327266,125.706562 L202.327266,125.706562 L200.527266,120.336562 C200.467266,120.126562 200.167266,119.976562 199.987266,119.976562 L197.827266,119.976562 C197.407266,119.976562 197.137266,120.276563 197.317266,120.666562 L201.067266,131.946563 C201.127266,132.126562 201.307266,132.276563 201.577266,132.276563 L201.727266,132.276563 Z M227.137266,126.216562 C227.467266,126.216562 227.707266,125.976562 227.707266,125.676562 L227.707266,123.666562 C227.707266,123.336562 227.467266,123.096562 227.137266,123.096562 L220.447266,123.096562 C220.117266,123.096562 219.877266,123.336562 219.877266,123.666562 L219.877266,125.676562 C219.877266,125.976562 220.117266,126.216562 220.447266,126.216562 L227.137266,126.216562 Z M237.217266,131.976562 C237.517266,131.976562 237.787266,131.706562 237.787266,131.406563 L237.787266,111.546562 C237.787266,111.246563 237.517266,110.976562 237.217266,110.976562 L234.697266,110.976562 C234.397266,110.976562 234.127266,111.246563 234.127266,111.546562 L234.127266,131.406563 C234.127266,131.706562 234.397266,131.976562 234.697266,131.976562 L237.217266,131.976562 Z M246.157266,115.716562 C247.327266,115.716562 248.257266,114.786563 248.257266,113.646563 C248.257266,112.506562 247.327266,111.576563 246.157266,111.576563 C245.017266,111.576563 244.117266,112.506562 244.117266,113.646563 C244.117266,114.786563 245.017266,115.716562 246.157266,115.716562 Z M247.447266,131.976562 C247.747266,131.976562 248.017266,131.706562 248.017266,131.406563 L248.017266,120.546562 C248.017266,120.216562 247.747266,119.976562 247.447266,119.976562 L244.957266,119.976562 C244.657266,119.976562 244.387266,120.216562 244.387266,120.546562 L244.387266,131.406563 C244.387266,131.706562 244.657266,131.976562 244.957266,131.976562 L247.447266,131.976562 Z M260.047266,132.276563 C262.177266,132.276563 263.767266,131.346562 264.787266,129.756562 C264.997266,129.456562 264.877266,129.156563 264.577266,128.916562 L263.287266,127.806562 C263.047266,127.626562 262.747266,127.686563 262.537266,127.896563 C261.997266,128.406563 261.427266,129.036563 260.137266,129.036563 C258.517266,129.036563 257.227266,127.686563 257.227266,125.976562 C257.227266,124.296562 258.547266,122.916562 260.167266,122.916562 C261.007266,122.916562 261.757266,123.336562 262.237266,123.876562 C262.447266,124.056562 262.717266,124.206562 262.987266,123.966562 L264.367266,122.646563 C264.667266,122.436563 264.727266,122.076563 264.517266,121.806562 C263.377266,120.426562 261.937266,119.676562 260.077266,119.676562 C256.717266,119.676562 253.687266,122.436563 253.687266,125.976562 C253.687266,129.576563 256.657266,132.276563 260.047266,132.276563 Z M273.517266,131.976562 C273.817266,131.976562 274.087266,131.706562 274.087266,131.406563 L274.087266,126.336562 L278.827266,131.736563 C278.917266,131.856563 279.157266,131.976562 279.337266,131.976562 L282.577266,131.976562 C283.087266,131.976562 283.267266,131.466562 282.967266,131.136562 L277.627266,125.406563 L282.097266,120.846562 C282.397266,120.516562 282.217266,119.976562 281.707266,119.976562 L278.977266,119.976562 C278.647266,119.976562 278.437266,120.156563 278.227266,120.336562 L274.087266,124.536563 L274.087266,111.546562 C274.087266,111.246563 273.817266,110.976562 273.517266,110.976562 L270.967266,110.976562 C270.667266,110.976562 270.397266,111.246563 270.397266,111.546562 L270.397266,131.406563 C270.397266,131.706562 270.667266,131.976562 270.967266,131.976562 L273.517266,131.976562 Z M289.837266,115.716562 C291.007266,115.716562 291.937266,114.786563 291.937266,113.646563 C291.937266,112.506562 291.007266,111.576563 289.837266,111.576563 C288.697266,111.576563 287.797266,112.506562 287.797266,113.646563 C287.797266,114.786563 288.697266,115.716562 289.837266,115.716562 Z M291.127266,131.976562 C291.427266,131.976562 291.697266,131.706562 291.697266,131.406563 L291.697266,120.546562 C291.697266,120.216562 291.427266,119.976562 291.127266,119.976562 L288.637266,119.976562 C288.337266,119.976562 288.067266,120.216562 288.067266,120.546562 L288.067266,131.406563 C288.067266,131.706562 288.337266,131.976562 288.637266,131.976562 L291.127266,131.976562 Z M301.087266,131.976562 C301.657266,131.976562 301.837266,131.826563 301.837266,131.406563 L301.837266,124.806562 C302.137266,123.996563 303.097266,122.916562 304.657266,122.916562 C306.097266,122.916562 306.907266,123.906563 306.907266,125.466562 L306.907266,131.406563 C306.907266,131.706562 307.147266,131.976562 307.477266,131.976562 L309.937266,131.976562 C310.237266,131.976562 310.507266,131.706562 310.507266,131.406563 L310.507266,125.646563 C310.507266,122.526563 308.977266,119.676562 305.167266,119.676562 C302.857266,119.676562 301.387266,120.966562 300.937266,121.446563 L300.517266,120.336562 C300.427266,120.126562 300.277266,119.976562 300.007266,119.976562 L298.867266,119.976562 C298.567266,119.976562 298.297266,120.216562 298.297266,120.546562 L298.297266,131.406563 C298.297266,131.706562 298.567266,131.976562 298.867266,131.976562 L301.087266,131.976562 Z M322.177266,141.276563 C326.527266,141.276563 328.747266,138.936563 328.747266,136.176562 C328.747266,133.536563 326.527266,131.976562 323.797266,131.976562 L319.957266,131.976562 C319.297266,131.976562 318.757266,131.586562 318.757266,130.956562 C318.757266,130.236563 319.447266,129.816563 319.867266,129.816563 C320.347266,129.816563 321.127266,130.056562 322.267266,130.056562 C325.417266,130.056562 327.397266,127.716562 327.397266,125.346562 C327.397266,123.216562 326.197266,122.286563 326.197266,122.286563 L327.877266,121.746563 C328.087266,121.686563 328.207266,121.446563 328.207266,121.236563 L328.207266,120.246563 C328.207266,119.916562 327.967266,119.676562 327.637266,119.676562 L322.177266,119.676562 C319.207266,119.676562 316.957266,122.106563 316.957266,124.896563 C316.957266,126.696563 317.857266,127.716562 317.857266,127.716562 C317.857266,127.716562 315.607266,128.736563 315.607266,131.076563 C315.607266,133.266562 317.347266,134.076563 317.857266,134.226562 L317.857266,134.316563 C317.557266,134.496563 316.057266,135.366563 316.057266,137.166562 C316.057266,139.086562 317.737266,141.276563 322.177266,141.276563 Z M322.267266,127.206562 C321.067266,127.206562 320.167266,126.306562 320.167266,125.046562 C320.167266,123.786563 321.067266,122.886562 322.267266,122.886562 C323.497266,122.886562 324.337266,123.786563 324.337266,125.046562 C324.337266,126.306562 323.497266,127.206562 322.267266,127.206562 Z M322.147266,138.276563 C320.527266,138.276563 319.507266,137.556562 319.507266,136.506562 C319.507266,135.576563 320.437266,135.156563 320.797266,135.036563 C321.427266,134.946563 322.087266,134.916562 322.747266,134.916562 C324.517266,134.916562 324.937266,135.846562 324.937266,136.386562 C324.937266,137.526563 323.827266,138.276563 322.147266,138.276563 Z M348.667266,141.276563 C353.017266,141.276563 355.237266,138.936563 355.237266,136.176562 C355.237266,133.536563 353.017266,131.976562 350.287266,131.976562 L346.447266,131.976562 C345.787266,131.976562 345.247266,131.586562 345.247266,130.956562 C345.247266,130.236563 345.937266,129.816563 346.357266,129.816563 C346.837266,129.816563 347.617266,130.056562 348.757266,130.056562 C351.907266,130.056562 353.887266,127.716562 353.887266,125.346562 C353.887266,123.216562 352.687266,122.286563 352.687266,122.286563 L354.367266,121.746563 C354.577266,121.686563 354.697266,121.446563 354.697266,121.236563 L354.697266,120.246563 C354.697266,119.916562 354.457266,119.676562 354.127266,119.676562 L348.667266,119.676562 C345.697266,119.676562 343.447266,122.106563 343.447266,124.896563 C343.447266,126.696563 344.347266,127.716562 344.347266,127.716562 C344.347266,127.716562 342.097266,128.736563 342.097266,131.076563 C342.097266,133.266562 343.837266,134.076563 344.347266,134.226562 L344.347266,134.316563 C344.047266,134.496563 342.547266,135.366563 342.547266,137.166562 C342.547266,139.086562 344.227266,141.276563 348.667266,141.276563 Z M348.757266,127.206562 C347.557266,127.206562 346.657266,126.306562 346.657266,125.046562 C346.657266,123.786563 347.557266,122.886562 348.757266,122.886562 C349.987266,122.886562 350.827266,123.786563 350.827266,125.046562 C350.827266,126.306562 349.987266,127.206562 348.757266,127.206562 Z M348.637266,138.276563 C347.017266,138.276563 345.997266,137.556562 345.997266,136.506562 C345.997266,135.576563 346.927266,135.156563 347.287266,135.036563 C347.917266,134.946563 348.577266,134.916562 349.237266,134.916562 C351.007266,134.916562 351.427266,135.846562 351.427266,136.386562 C351.427266,137.526563 350.317266,138.276563 348.637266,138.276563 Z M365.437266,132.276563 C368.827266,132.276563 371.587266,129.396563 371.587266,125.946563 C371.587266,122.556562 368.827266,119.676562 365.437266,119.676562 C362.047266,119.676562 359.287266,122.556562 359.287266,125.946563 C359.287266,129.396563 362.047266,132.276563 365.437266,132.276563 Z M365.437266,129.036563 C363.817266,129.036563 362.557266,127.656563 362.557266,125.946563 C362.557266,124.266562 363.817266,122.916562 365.437266,122.916562 C367.027266,122.916562 368.317266,124.266562 368.317266,125.946563 C368.317266,127.656563 367.027266,129.036563 365.437266,129.036563 Z M382.477266,132.276563 C385.867266,132.276563 388.627266,129.396563 388.627266,125.946563 C388.627266,122.556562 385.867266,119.676562 382.477266,119.676562 C379.087266,119.676562 376.327266,122.556562 376.327266,125.946563 C376.327266,129.396563 379.087266,132.276563 382.477266,132.276563 Z M382.477266,129.036563 C380.857266,129.036563 379.597266,127.656563 379.597266,125.946563 C379.597266,124.266562 380.857266,122.916562 382.477266,122.916562 C384.067266,122.916562 385.357266,124.266562 385.357266,125.946563 C385.357266,127.656563 384.067266,129.036563 382.477266,129.036563 Z M399.157266,132.276563 C401.677266,132.276563 403.087266,130.476562 403.087266,130.476562 L403.387266,131.406563 C403.477266,131.736563 403.687266,131.976562 403.957266,131.976562 L405.127266,131.976562 C405.427266,131.976562 405.697266,131.706562 405.697266,131.406563 L405.697266,111.546562 C405.697266,111.246563 405.427266,110.976562 405.127266,110.976562 L402.577266,110.976562 C402.277266,110.976562 402.007266,111.246563 402.007266,111.546562 L402.007266,120.216562 C401.467266,120.006562 400.537266,119.676562 399.337266,119.676562 C395.767266,119.676562 393.397266,122.466562 393.397266,125.976562 C393.397266,129.426562 395.887266,132.276563 399.157266,132.276563 Z M399.607266,129.036563 C398.017266,129.036563 396.877266,127.656563 396.877266,125.976562 C396.877266,124.296562 398.107266,122.916562 399.787266,122.916562 C401.287266,122.916562 402.127266,123.606563 402.127266,123.606563 L402.127266,127.086562 C401.917266,127.806562 401.197266,129.036563 399.607266,129.036563 Z M415.417266,123.816563 C415.687266,123.816563 415.957266,123.576563 415.987266,123.336562 L417.157266,114.906563 L417.157266,111.546562 C417.157266,111.246563 416.887266,110.976562 416.587266,110.976562 L413.287266,110.976562 C412.987266,110.976562 412.717266,111.246563 412.717266,111.546562 L412.717266,114.966562 L413.887266,123.336562 C413.917266,123.576563 414.187266,123.816563 414.457266,123.816563 L415.417266,123.816563 Z M414.907266,132.276563 C416.287266,132.276563 417.397266,131.166562 417.397266,129.816563 C417.397266,128.466562 416.287266,127.326563 414.907266,127.326563 C413.587266,127.326563 412.477266,128.466562 412.477266,129.816563 C412.477266,131.166562 413.587266,132.276563 414.907266,132.276563 Z" id="paw-lickinggood!" fill="#262527"></path>
        </g>
    </g>
</svg>